<?xml version="1.0" standalone="no"?>
<!DOCTYPE svg PUBLIC "-//W3C//DTD SVG 1.1//EN" "http://www.w3.org/Graphics/SVG/1.1/DTD/svg11.dtd">
<svg t="1700468923862" class="icon" viewBox="0 0 1272 1024" version="1.1" xmlns="http://www.w3.org/2000/svg" p-id="1509" width="59.625" height="48" xmlns:xlink="http://www.w3.org/1999/xlink">
<path d="M494.337 48.827c-255.798 0-463.186 207.387-463.186 463.16 0 255.825 207.388 463.186 463.186 463.186 255.825 0 463.186-207.361 463.186-463.186 0-255.773-207.36-463.16-463.186-463.16z m0 127.129a112.524 112.524 0 1 1 0 225.048 112.524 112.524 0 0 1 0-225.048z m49.326 336.03zM280.131 624.512a112.524 112.524 0 1 1 0-225.074 112.524 112.524 0 0 1 0 225.074z m214.206 228.21a112.524 112.524 0 0 1-112.524-112.577 112.524 112.524 0 1 1 225.049 0 112.55 112.55 0 0 1-112.525 112.577z m209.269-228.21a112.524 112.524 0 1 1 0-225.074 112.524 112.524 0 0 1 0 225.074z" p-id="1510" ></path><path d="M897.643 284.17h215.826s157.644 8.02 110.199 186.59c0 0-23.696 94.89-164.62 246.942 0 0-73.936 99.044 19.543 161.824h153.986v46.034h-177.708s-92.068-46.034-71.167-154.848c0 0 4.206-48.83 75.347-126.946 0 0 156.233-140.923 125.56-248.327 0 0-9.744-66.96-100.453-76.731H891.66l5.983-34.539z" p-id="1511" ></path></svg>