<?xml version="1.0" standalone="no"?>
<!DOCTYPE svg PUBLIC "-//W3C//DTD SVG 1.1//EN" "http://www.w3.org/Graphics/SVG/1.1/DTD/svg11.dtd">
<svg t="1700468923862" class="icon" viewBox="0 0 1272 1024" version="1.1" xmlns="http://www.w3.org/2000/svg" p-id="1509" width="59.625" height="48" xmlns:xlink="http://www.w3.org/1999/xlink"><path d="M334.9 385.7c0 92 75.7 166.9 168.7 166.9s168.7-74.9 168.7-166.9-75.7-166.9-168.7-166.9-168.7 74.9-168.7 166.9z m299.9 0c0 71.3-58.9 129.4-131.2 129.4S372.4 457 372.4 385.7s58.9-129.4 131.2-129.4 131.2 58.1 131.2 129.4z"></path><path d="M258.6 466.3s24.7-13.9 24.7-21.8c0-6-13.9-66.8-20.9-96.7 17.7-115.4 118.8-204.1 240.5-204.1 126 0 229.9 95.1 242 216.4-7.1 25.7-16.2 62.5-16.2 84.4 0 8.7 24.7 21.8 24.7 21.8 37.7 0 55-30.2 55-67.5 0-27.2-9.2-50.6-28.8-61.3-22.3-131.1-137.9-231.3-276.8-231.3-140.6 0-257.3 102.6-277.6 236.1-14.7 12.1-21.6 32.8-21.6 56.5 0 37.3 17.3 67.5 55 67.5zM688.8 559.9c-7.6-5.4-18-4.5-24.5 2.2-41 42.3-96.2 65.7-155.5 65.7s-114.6-23.3-155.5-65.7c-6.5-6.8-16.9-7.7-24.5-2.2-78.5 56.7-125.4 147.9-125.4 244 0 10.4 8.4 18.8 18.8 18.8s18.8-8.4 18.8-18.8c0-78.9 36.2-154.1 97.5-204.1 46.6 42.4 106.5 65.5 170.4 65.5s123.8-23.2 170.4-65.5c61.3 50 97.5 125.2 97.5 204.1 0 10.4 8.4 18.8 18.8 18.8 10.3 0 18.7-8.4 18.6-18.8 0-96-46.9-187.3-125.4-244z"></path></svg>
