<?xml version="1.0" standalone="no"?>
<!DOCTYPE svg PUBLIC "-//W3C//DTD SVG 1.1//EN" "http://www.w3.org/Graphics/SVG/1.1/DTD/svg11.dtd">
<svg t="1700468923862" class="icon" viewBox="0 0 1272 1024" version="1.1" xmlns="http://www.w3.org/2000/svg" p-id="1509" width="59.625" height="48" xmlns:xlink="http://www.w3.org/1999/xlink"><path d="M982.204082 187.297959h80.17502c24.973061 0 45.212735 20.135184 45.212735 44.993306v652.434286c0 24.847673-20.239673 44.993306-45.212735 44.993306h-57.364898c-5.767837 0-10.44898 4.660245-10.44898 10.407184v34.586122c0 24.847673-20.229224 44.993306-45.202285 44.993306H158.228898c-24.973061 0-45.212735-20.145633-45.212735-44.993306v-34.586122a10.428082 10.428082 0 0 0-10.448979-10.407184h-57.364898C20.250122 929.718857 0 909.573224 0 884.715102V232.280816c0-24.858122 20.239673-44.993306 45.212735-44.993306H125.387755V83.236571C125.387755 37.261061 162.816 0 208.979592 0h689.632653c46.163592 0 83.591837 37.27151 83.591837 83.236571v104.061388z" fill="#FF5F16"></path><path d="M1062.379102 187.297959c24.973061 0 45.212735 20.135184 45.212735 44.993306v652.434286c0 24.847673-20.239673 44.993306-45.212735 44.993306h-57.364898c-5.767837 0-10.44898 4.660245-10.44898 10.407184v34.586122c0 24.847673-20.229224 44.993306-45.202285 44.993306H158.228898c-24.973061 0-45.212735-20.145633-45.212735-44.993306v-34.586122a10.428082 10.428082 0 0 0-10.448979-10.407184h-57.364898C20.250122 929.718857 0 909.573224 0 884.715102V232.280816c0-24.858122 20.239673-44.993306 45.212735-44.993306h90.613551v20.803919H45.212735A24.241633 24.241633 0 0 0 20.897959 232.291265v652.434286a24.241633 24.241633 0 0 0 24.314776 24.178939h57.364898c17.30351 0 31.346939 13.980735 31.346938 31.221551v34.586122a24.241633 24.241633 0 0 0 24.304327 24.178939h791.134041a24.241633 24.241633 0 0 0 24.314775-24.178939v-34.586122a31.284245 31.284245 0 0 1 31.346939-31.221551h57.364898A24.241633 24.241633 0 0 0 1086.693878 884.725551V232.280816a24.241633 24.241633 0 0 0-24.314776-24.189387h-89.652245v-20.803919h89.652245z m0 0c24.973061 0 45.212735 20.135184 45.212735 44.993306v652.434286c0 24.847673-20.239673 44.993306-45.212735 44.993306h-57.364898c-5.767837 0-10.44898 4.660245-10.44898 10.407184v34.586122c0 24.847673-20.229224 44.993306-45.202285 44.993306H158.228898c-24.973061 0-45.212735-20.145633-45.212735-44.993306v-34.586122a10.428082 10.428082 0 0 0-10.448979-10.407184h-57.364898C20.250122 929.718857 0 909.573224 0 884.715102V232.280816c0-24.858122 20.239673-44.993306 45.212735-44.993306h90.613551v20.803919H45.212735A24.241633 24.241633 0 0 0 20.897959 232.291265v652.434286a24.241633 24.241633 0 0 0 24.314776 24.178939h57.364898c17.30351 0 31.346939 13.980735 31.346938 31.221551v34.586122a24.241633 24.241633 0 0 0 24.304327 24.178939h791.134041a24.241633 24.241633 0 0 0 24.314775-24.178939v-34.586122a31.284245 31.284245 0 0 1 31.346939-31.221551h57.364898A24.241633 24.241633 0 0 0 1086.693878 884.725551V232.280816a24.241633 24.241633 0 0 0-24.314776-24.189387h-89.652245v-20.803919h89.652245z" fill="#E55513"></path><path d="M208.979592 20.814367c-34.627918 0-62.693878 27.95102-62.693878 62.422204v728.367021c0 11.493878 9.351837 20.814367 20.897959 20.814367h773.22449c11.546122 0 20.897959-9.32049 20.897959-20.814367V83.236571c0-34.481633-28.065959-62.422204-62.693877-62.422204H208.979592zM208.979592 0h689.632653c46.163592 0 83.591837 37.27151 83.591837 83.236571v728.367021c0 22.987755-18.703673 41.618286-41.795919 41.618286H167.183673c-23.092245 0-41.795918-18.630531-41.795918-41.618286V83.236571C125.387755 37.261061 162.816 0 208.979592 0z" fill="#E55513"></path><path d="M553.033143 475.637551c-28.766041 0-51.335837 23.228082-51.335837 51.879184v58.357551c0 28.651102 22.569796 51.868735 51.335837 51.868734s51.335837-23.217633 51.335837-51.868734v-58.357551c0-28.651102-22.569796-51.868735-51.335837-51.868735m219.710694-43.279673l0.052245-0.031347a110.759184 110.759184 0 0 1-15.67347-56.497633c0-28.692898 10.887837-54.836245 28.766041-74.605714a52.286694 52.286694 0 0 0-12.350694-72.944327 52.819592 52.819592 0 0 0-68.472163 6.206694 215.562449 215.562449 0 0 0-40.792816 70.102204l-0.083592 0.198531c-6.791837 21.347265-26.51951 23.081796-37.971592 19.456-0.052245-0.010449-0.10449-0.010449-0.146286-0.031347A262.373878 262.373878 0 0 0 553.795918 314.127673c-144.269061 0-261.22449 116.464327-261.224489 260.127347 0 3.834776 0.229878 12.622367 0.261224 13.552327 1.149388 28.692898 25.70449 51.032816 54.512327 49.893877 28.807837-1.12849 51.30449-25.307429 50.155102-54.000326a345.49551 345.49551 0 0 1-0.250776-9.445878c0-86.099592 70.091755-155.888327 156.546612-155.888326s156.546612 69.799184 156.546613 155.898775c0 3.385469-0.146286 6.750041-0.365715 10.083266-0.773224 28.410776 21.524898 52.224 50.123755 53.352489 28.818286 1.138939 53.467429-21.211429 54.606368-49.893877 0.031347-0.794122 0.313469-9.330939 0.313469-13.552327a258.089796 258.089796 0 0 0-42.276571-141.897142" fill="#FFFFFF"></path></svg>