<?xml version="1.0" standalone="no"?>
<!DOCTYPE svg PUBLIC "-//W3C//DTD SVG 1.1//EN" "http://www.w3.org/Graphics/SVG/1.1/DTD/svg11.dtd">
<svg t="1700468923862" class="icon" viewBox="0 0 1272 1024" version="1.1" xmlns="http://www.w3.org/2000/svg" p-id="1509" width="59.625" height="48" xmlns:xlink="http://www.w3.org/1999/xlink">
<path d="M982.204082 188.081633h80.17502A45.191837 45.191837 0 0 1 1107.591837 233.26302v655.182368a45.191837 45.191837 0 0 1-45.212735 45.181388h-57.364898a10.44898 10.44898 0 0 0-10.44898 10.448979v34.742857A45.191837 45.191837 0 0 1 949.373388 1024H158.228898a45.191837 45.191837 0 0 1-45.212735-45.181388V944.065306a10.44898 10.44898 0 0 0-10.448979-10.448979h-57.364898A45.191837 45.191837 0 0 1 0 888.445388V233.26302A45.191837 45.191837 0 0 1 45.212735 188.081633H125.387755V83.591837a83.591837 83.591837 0 0 1 83.591837-83.591837h689.632653a83.591837 83.591837 0 0 1 83.591837 83.591837v104.489796z" fill="#DCDCDC"></path><path d="M1062.379102 188.081633A45.191837 45.191837 0 0 1 1107.591837 233.26302v655.182368a45.191837 45.191837 0 0 1-45.212735 45.181388h-57.364898a10.44898 10.44898 0 0 0-10.44898 10.448979v34.742857A45.191837 45.191837 0 0 1 949.373388 1024H158.228898a45.191837 45.191837 0 0 1-45.212735-45.181388V944.065306a10.44898 10.44898 0 0 0-10.448979-10.448979h-57.364898A45.191837 45.191837 0 0 1 0 888.445388V233.26302A45.191837 45.191837 0 0 1 45.212735 188.081633h90.613551v20.897959H45.212735A24.293878 24.293878 0 0 0 20.897959 233.26302v655.182368a24.293878 24.293878 0 0 0 24.314776 24.283428h57.364898a31.346939 31.346939 0 0 1 31.346938 31.346939v34.742857A24.293878 24.293878 0 0 0 158.218449 1003.102041h791.134041a24.293878 24.293878 0 0 0 24.314775-24.283429V944.065306a31.346939 31.346939 0 0 1 31.346939-31.346939h57.364898A24.293878 24.293878 0 0 0 1086.693878 888.445388V233.26302A24.293878 24.293878 0 0 0 1062.379102 208.979592h-89.652245v-20.897959h89.652245z m0 0A45.191837 45.191837 0 0 1 1107.591837 233.26302v655.182368a45.191837 45.191837 0 0 1-45.212735 45.181388h-57.364898a10.44898 10.44898 0 0 0-10.44898 10.448979v34.742857A45.191837 45.191837 0 0 1 949.373388 1024H158.228898a45.191837 45.191837 0 0 1-45.212735-45.181388V944.065306a10.44898 10.44898 0 0 0-10.448979-10.448979h-57.364898A45.191837 45.191837 0 0 1 0 888.445388V233.26302A45.191837 45.191837 0 0 1 45.212735 188.081633h90.613551v20.897959H45.212735A24.293878 24.293878 0 0 0 20.897959 233.26302v655.182368a24.293878 24.293878 0 0 0 24.314776 24.283428h57.364898a31.346939 31.346939 0 0 1 31.346938 31.346939v34.742857A24.293878 24.293878 0 0 0 158.218449 1003.102041h791.134041a24.293878 24.293878 0 0 0 24.314775-24.283429V944.065306a31.346939 31.346939 0 0 1 31.346939-31.346939h57.364898A24.293878 24.293878 0 0 0 1086.693878 888.445388V233.26302A24.293878 24.293878 0 0 0 1062.379102 208.979592h-89.652245v-20.897959h89.652245z" fill="#BDC0C5"></path><path d="M208.979592 20.897959a62.693878 62.693878 0 0 0-62.693878 62.693878v731.428571a20.897959 20.897959 0 0 0 20.897959 20.897959h773.22449a20.897959 20.897959 0 0 0 20.897959-20.897959V83.591837a62.693878 62.693878 0 0 0-62.693877-62.693878H208.979592z m0-20.897959h689.632653a83.591837 83.591837 0 0 1 83.591837 83.591837v731.428571a41.795918 41.795918 0 0 1-41.795919 41.795919H167.183673a41.795918 41.795918 0 0 1-41.795918-41.795919V83.591837a83.591837 83.591837 0 0 1 83.591837-83.591837z" fill="#BDC0C5"></path><path d="M553.795918 174.884571C457.205551 174.884571 378.911347 253.178776 378.911347 349.769143v174.884571h349.769143V349.769143C728.68049 253.178776 650.375837 174.884571 553.795918 174.884571z m5.820082 58.441143c61.680327 3.030204 110.759184 54.000327 110.759184 116.443429v116.589714H437.216653V349.769143c0-64.386612 52.192653-116.589714 116.589714-116.589714l5.820082 0.146285z" fill="#FFFFFF"></path><path d="M320.61649 408.064m58.294857 0l349.769143 0q58.294857 0 58.294857 58.294857l0 233.179429q0 58.294857-58.294857 58.294857l-349.769143 0q-58.294857 0-58.294857-58.294857l0-233.179429q0-58.294857 58.294857-58.294857Z" fill="#FFFFFF"></path>
</svg>

