<?xml version="1.0" standalone="no"?><!DOCTYPE svg PUBLIC "-//W3C//DTD SVG 1.1//EN" "http://www.w3.org/Graphics/SVG/1.1/DTD/svg11.dtd"><svg t="1700469490730" class="icon" viewBox="0 0 1024 1024" version="1.1" xmlns="http://www.w3.org/2000/svg" p-id="4704" xmlns:xlink="http://www.w3.org/1999/xlink" width="48" height="48"><path d="M885.333333 42.666667H181.333333a53.393333 53.393333 0 0 0-53.333333 53.333333v832a53.393333 53.393333 0 0 0 53.333333 53.333333h480a277.106667 277.106667 0 0 0 277.333334-277.333333V96a53.393333 53.393333 0 0 0-53.333334-53.333333zM181.333333 938.666667a10.666667 10.666667 0 0 1-10.666666-10.666667V96a10.666667 10.666667 0 0 1 10.666666-10.666667h704a10.666667 10.666667 0 0 1 10.666667 10.666667v608q0 10.786667-0.96 21.333333H736a53.393333 53.393333 0 0 0-53.333333 53.333334v159.04q-10.54 0.953333-21.333334 0.96z m544-8.873334V778.666667a10.666667 10.666667 0 0 1 10.666667-10.666667h151.126667A235.6 235.6 0 0 1 725.333333 929.793333zM597.333333 234.666667a21.333333 21.333333 0 0 1 21.333334-21.333334h128a21.333333 21.333333 0 0 1 0 42.666667H618.666667a21.333333 21.333333 0 0 1-21.333334-21.333333z m0 170.666666a21.333333 21.333333 0 0 1 21.333334-21.333333h128a21.333333 21.333333 0 0 1 0 42.666667H618.666667a21.333333 21.333333 0 0 1-21.333334-21.333334zM298.666667 618.666667a21.333333 21.333333 0 0 1 21.333333-21.333334h426.666667a21.333333 21.333333 0 0 1 0 42.666667H320a21.333333 21.333333 0 0 1-21.333333-21.333333z m341.333333 170.666666a21.333333 21.333333 0 0 1-21.333333 21.333334H320a21.333333 21.333333 0 0 1 0-42.666667h298.666667a21.333333 21.333333 0 0 1 21.333333 21.333333zM298.666667 448V234.666667a21.333333 21.333333 0 0 1 38-13.333334l132.666666 165.853334V234.666667a21.333333 21.333333 0 0 1 42.666667 0v213.333333a21.333333 21.333333 0 0 1-38 13.333333L341.333333 295.48V448a21.333333 21.333333 0 0 1-42.666666 0z"  p-id="4705"></path></svg>