<?xml version="1.0" standalone="no"?><!DOCTYPE svg PUBLIC "-//W3C//DTD SVG 1.1//EN" "http://www.w3.org/Graphics/SVG/1.1/DTD/svg11.dtd"><svg t="1704112396293" class="icon" viewBox="0 0 1024 1024" version="1.1" xmlns="http://www.w3.org/2000/svg" p-id="1511" width="15" height="15" xmlns:xlink="http://www.w3.org/1999/xlink"><path d="M934.697674 465.562791c-65.488372-39.293023-105.972093-110.734884-105.972093-186.939535v-190.511628c0-15.47907-13.097674-28.576744-28.576744-28.576744H230.995349C214.325581 59.534884 202.418605 72.632558 202.418605 88.111628v189.32093c0 76.204651-40.483721 147.646512-105.972093 186.939535-10.716279 7.144186-20.24186 16.669767-26.195349 27.386047-5.953488 10.716279-9.525581 23.813953-9.525582 36.911627v384.595349c0 30.95814 25.004651 57.153488 57.153489 57.153489h797.767442c30.95814 0 57.153488-25.004651 57.153488-57.153489V529.860465c-1.190698-26.195349-15.47907-51.2-38.102326-64.297674z m-747.758139-2.381396c45.246512-50.009302 71.44186-116.688372 71.44186-185.748837V130.976744c0-8.334884 5.953488-14.288372 14.288372-14.288372h484.613954c8.334884 0 14.288372 5.953488 14.288372 14.288372v147.646512c0 69.060465 26.195349 135.739535 71.44186 185.748837 8.334884 9.525581 1.190698 23.813953-10.716279 23.813954h-110.734883c-5.953488 0-11.906977 3.572093-13.097675 9.525581l-15.479069 47.627907-11.906977 36.911628c-3.572093 11.906977-14.288372 19.051163-27.386047 19.051163H377.451163c-11.906977 0-22.623256-8.334884-27.386047-19.051163l-11.906976-36.911628-15.47907-47.627907c-2.381395-5.953488-7.144186-9.525581-13.097675-9.525581h-110.734883c-13.097674-1.190698-20.24186-15.47907-11.906977-25.004652z m0 0" p-id="1512" fill="#bdc0c5"></path><path d="M658.455814 230.995349h-285.767442c-15.47907 0-28.576744-13.097674-28.576744-28.576744 0-15.47907 13.097674-28.576744 28.576744-28.576745h284.576744c15.47907 0 28.576744 13.097674 28.576744 28.576745 1.190698 16.669767-11.906977 28.576744-27.386046 28.576744z m0 113.116279h-285.767442c-15.47907 0-28.576744-13.097674-28.576744-28.576744 0-15.47907 13.097674-28.576744 28.576744-28.576744h284.576744c15.47907 0 28.576744 13.097674 28.576744 28.576744 1.190698 16.669767-11.906977 28.576744-27.386046 28.576744z m0 114.306977h-285.767442c-15.47907 0-28.576744-13.097674-28.576744-28.576745 0-15.47907 13.097674-28.576744 28.576744-28.576744h284.576744c15.47907 0 28.576744 13.097674 28.576744 28.576744 1.190698 15.47907-11.906977 28.576744-27.386046 28.576745z m0 0" p-id="1513" fill="#bdc0c5"></path></svg>