
<?xml version="1.0" standalone="no"?>
<!DOCTYPE svg PUBLIC "-//W3C//DTD SVG 1.1//EN" "http://www.w3.org/Graphics/SVG/1.1/DTD/svg11.dtd">
<svg t="1700468923862" class="icon" viewBox="0 0 1272 1024" version="1.1" xmlns="http://www.w3.org/2000/svg" p-id="1509" width="59.625" height="48" xmlns:xlink="http://www.w3.org/1999/xlink">
<path d="M514.6 591.7c-77.8 0-141.2-63.7-141.2-142s63.3-142.1 141.2-142.1c77.8 0 141.1 63.7 141.1 142.1 0.1 78.3-63.2 142-141.1 142z m0-245.6c-56.6 0-102.7 46.5-102.7 103.6S458 553.3 514.6 553.3s102.7-46.5 102.7-103.6-46-103.6-102.7-103.6z" ></path><path d="M709.7 751.3c-10.6 0-19.2-8.6-19.2-19.2v-13.9c0-67.4-82.2-126.5-175.9-126.5s-175.9 59.1-175.9 126.5v13.9c0 10.6-8.6 19.2-19.2 19.2s-19.2-8.6-19.2-19.2v-13.9c0-89.4 98.1-165 214.3-165 116.2 0 214.3 75.5 214.3 165v13.9c0 10.6-8.6 19.2-19.2 19.2z" ></path><path d="M732.2 894.6H246.5c-62.2 0-112.8-50.6-112.8-112.8 0-10.6 8.6-19.2 19.2-19.2s19.2 8.6 19.2 19.2c0 41 33.3 74.4 74.3 74.4h485.7c41 0 74.3-33.4 74.3-74.4V238.5c0-41-33.3-74.4-74.3-74.4H246.5c-41 0-74.3 33.4-74.3 74.4 0 10.6-8.6 19.2-19.2 19.2s-19.2-8.6-19.2-19.2c0-62.2 50.6-112.9 112.8-112.9h485.7c62.2 0 112.8 50.6 112.8 112.9v543.2c-0.2 62.2-50.8 112.9-112.9 112.9z" ></path><path d="M220.2 414h-76.9c-10.6 0-19.2-8.6-19.2-19.2s8.6-19.2 19.2-19.2h76.9c10.6 0 19.2 8.6 19.2 19.2s-8.6 19.2-19.2 19.2zM220.2 529.3h-76.9c-10.6 0-19.2-8.6-19.2-19.2s8.6-19.2 19.2-19.2h76.9c10.6 0 19.2 8.6 19.2 19.2s-8.6 19.2-19.2 19.2zM220.2 644.7h-76.9c-10.6 0-19.2-8.6-19.2-19.2s8.6-19.2 19.2-19.2h76.9c10.6 0 19.2 8.6 19.2 19.2s-8.6 19.2-19.2 19.2z" ></path>
</svg>