<?xml version="1.0" standalone="no"?>
<!DOCTYPE svg PUBLIC "-//W3C//DTD SVG 1.1//EN" "http://www.w3.org/Graphics/SVG/1.1/DTD/svg11.dtd">
<svg t="1700468923862" class="icon" viewBox="0 0 1272 1024" version="1.1" xmlns="http://www.w3.org/2000/svg" p-id="1509" width="59.625" height="48" xmlns:xlink="http://www.w3.org/1999/xlink">

<path d="M953.029703 182.49505h77.793584A43.849505 43.849505 0 0 1 1074.693069 226.334416v635.721505a43.849505 43.849505 0 0 1-43.869782 43.839366h-55.66099a10.138614 10.138614 0 0 0-10.138614 10.138614v33.710891A43.849505 43.849505 0 0 1 921.174178 993.584158H153.52903a43.849505 43.849505 0 0 1-43.869782-43.839366V916.023762a10.138614 10.138614 0 0 0-10.138614-10.138613h-55.66099A43.849505 43.849505 0 0 1 0 862.055921V226.334416A43.849505 43.849505 0 0 1 43.869782 182.49505H121.663366V81.108911a81.108911 81.108911 0 0 1 81.108911-81.108911h669.148515a81.108911 81.108911 0 0 1 81.108911 81.108911v101.386139z" fill="#FFFFFF"></path><path d="M1030.823287 182.49505A43.849505 43.849505 0 0 1 1074.693069 226.334416v635.721505a43.849505 43.849505 0 0 1-43.869782 43.839366h-55.66099a10.138614 10.138614 0 0 0-10.138614 10.138614v33.710891A43.849505 43.849505 0 0 1 921.174178 993.584158H153.52903a43.849505 43.849505 0 0 1-43.869782-43.839366V916.023762a10.138614 10.138614 0 0 0-10.138614-10.138613h-55.66099A43.849505 43.849505 0 0 1 0 862.055921V226.334416A43.849505 43.849505 0 0 1 43.869782 182.49505h87.92206v20.277227H43.869782A23.572277 23.572277 0 0 0 20.277228 226.334416v635.721505a23.572277 23.572277 0 0 0 23.592554 23.562138h55.66099a30.415842 30.415842 0 0 1 30.415842 30.415842v33.710891A23.572277 23.572277 0 0 0 153.518891 973.306931h767.63501a23.572277 23.572277 0 0 0 23.592554-23.562139V916.023762a30.415842 30.415842 0 0 1 30.415842-30.415841h55.66099A23.572277 23.572277 0 0 0 1054.415842 862.055921V226.334416A23.572277 23.572277 0 0 0 1030.823287 202.772277h-86.989307v-20.277227h86.989307z m0 0A43.849505 43.849505 0 0 1 1074.693069 226.334416v635.721505a43.849505 43.849505 0 0 1-43.869782 43.839366h-55.66099a10.138614 10.138614 0 0 0-10.138614 10.138614v33.710891A43.849505 43.849505 0 0 1 921.174178 993.584158H153.52903a43.849505 43.849505 0 0 1-43.869782-43.839366V916.023762a10.138614 10.138614 0 0 0-10.138614-10.138613h-55.66099A43.849505 43.849505 0 0 1 0 862.055921V226.334416A43.849505 43.849505 0 0 1 43.869782 182.49505h87.92206v20.277227H43.869782A23.572277 23.572277 0 0 0 20.277228 226.334416v635.721505a23.572277 23.572277 0 0 0 23.592554 23.562138h55.66099a30.415842 30.415842 0 0 1 30.415842 30.415842v33.710891A23.572277 23.572277 0 0 0 153.518891 973.306931h767.63501a23.572277 23.572277 0 0 0 23.592554-23.562139V916.023762a30.415842 30.415842 0 0 1 30.415842-30.415841h55.66099A23.572277 23.572277 0 0 0 1054.415842 862.055921V226.334416A23.572277 23.572277 0 0 0 1030.823287 202.772277h-86.989307v-20.277227h86.989307z" fill="#BDC0C5"></path><path d="M202.772277 20.277228a60.831683 60.831683 0 0 0-60.831683 60.831683v709.70297a20.277228 20.277228 0 0 0 20.277228 20.277228h750.257426a20.277228 20.277228 0 0 0 20.277227-20.277228V81.108911a60.831683 60.831683 0 0 0-60.831683-60.831683H202.772277z m0-20.277228h669.148515a81.108911 81.108911 0 0 1 81.108911 81.108911v709.70297a40.554455 40.554455 0 0 1-40.554455 40.554456H162.217822a40.554455 40.554455 0 0 1-40.554456-40.554456V81.108911a81.108911 81.108911 0 0 1 81.108911-81.108911z" fill="#BDC0C5"></path>


</svg>